<svg xmlns="http://www.w3.org/2000/svg" viewBox="0 0 46 46"><path fill="#FFF" d="M11.524 8.827L8.537 5.832a.447.447 0 0 1 .032-.664 22.729 22.729 0 0 1 12.05-5.04c.016-.002.032-.002.048-.002a.448.448 0 0 1 .448.449v22.479a.43.43 0 0 1-.03.16c.006.054.014.111.023.171.004.025.007.05.007.075v6.058a.448.448 0 0 1-.603.421 7.361 7.361 0 0 1-4.794-6.766.46.46 0 0 1-.015-.119V6.692a17.73 17.73 0 0 0-3.586 2.172.446.446 0 0 1-.593-.037zm29.227-.394a22.995 22.995 0 0 1 5.154 14.496c0 12.643-10.261 22.929-22.872 22.929C10.42 45.858.16 35.572.16 22.929c0-5.27 1.83-10.42 5.154-14.497a.448.448 0 0 1 .325-.164h.023c.118 0 .232.046.316.13l2.989 2.997c.16.16.176.414.037.592a17.674 17.674 0 0 0-3.75 10.942c0 9.828 7.976 17.824 17.779 17.824S40.81 32.757 40.81 22.929c0-4.002-1.297-7.785-3.75-10.942a.447.447 0 0 1 .036-.591l2.99-2.996a.447.447 0 0 1 .317-.132h.023a.45.45 0 0 1 .325.165zM23.033 33.267c5.685 0 10.31-4.638 10.31-10.338 0-4.898-3.47-9.159-8.25-10.13a.449.449 0 0 1-.36-.44V.554a.446.446 0 0 1 .49-.446 22.703 22.703 0 0 1 12.272 5.06.449.449 0 0 1 .033.664l-2.986 2.994a.447.447 0 0 1-.594.037 17.745 17.745 0 0 0-3.802-2.269v2.732c5.07 2.665 8.21 7.852 8.21 13.604 0 8.47-6.875 15.36-15.324 15.36-8.45 0-15.323-6.89-15.323-15.36a15.26 15.26 0 0 1 2.97-9.086.45.45 0 0 1 .68-.05l2.957 2.964c.15.15.174.382.06.56a10.306 10.306 0 0 0-1.654 5.612c0 5.7 4.625 10.337 10.31 10.337z"/></svg>