<svg width="662" height="102" xmlns="http://www.w3.org/2000/svg"><path d="M0 99.463L51.662.752h54.578c6.433.73 11.182 2.78 14.275 6.152 3.145 3.373 4.528 8.067 4.139 14.082-.994 7.292-2.326 12.76-4.03 16.407a69.986 69.986 0 0 1-5.883 10.253c-2.226 3.19-6.434 6.882-12.664 11.075-6.291 4.192-13.591 6.904-21.876 8.134H50.902L35.577 99.463H0zM70.404 25.36l-8.546 18.184h22.727c1.207 0 2.728-.49 4.56-1.47 1.828-.98 3.62-3.452 5.377-7.417 1.395-3.782 1.629-6.277.703-7.485-.92-1.208-1.862-1.812-2.831-1.812h-21.99zm107.674 9.434l9.66-34.043h27.288l-23.263 98.71H159.73l10.086-35.546h-24.39l-11.459 35.547h-32.033L138.501.752h27.289l-10.975 34.043h23.263zm21.497 64.668L221.682.752h54.578c6.65.73 12.014 2.78 16.116 6.152 4.155 3.373 6.943 8.067 8.356 14.082 1.189 7.292 1.495 12.76.882 16.407-.616 3.645-1.552 7.063-2.812 10.253-1.271 3.19-4.374 6.882-9.349 11.075-5.036 4.192-11.524 6.904-19.44 8.134h-29.299l-5.562 32.608h-35.577zm48.217-74.102l-3.102 18.184h22.727c1.208 0 2.582-.49 4.12-1.47 1.534-.98 2.586-3.452 3.157-7.417.262-3.782-.251-6.277-1.538-7.485-1.282-1.208-2.405-1.812-3.374-1.812h-21.99zM336.971.752l-.673 32.129L356.131.752h27.289l-30.948 49.355 15.753 19.961h28.145l2.192 29.395h-38.848L335.52 70.068l-.615 29.395h-32.033l6.81-98.711h27.289zm160.443 49.902c2.597 10.801 2.66 20.007.109 27.617-2.654 7.611-7.807 13.33-15.456 17.159-7.747 3.828-17.579 5.742-29.423 5.742-11.843 0-22.249-1.926-31.142-5.776-8.796-3.851-15.635-9.548-20.517-17.09-4.783-7.543-7.524-16.76-8.297-27.652-.586-8.248.028-15.506 1.806-21.772 1.731-6.266 4.514-11.541 8.339-15.825 3.762-4.284 8.51-7.531 14.258-9.742C422.79 1.105 429.392 0 436.93 0c10.012 0 19.018 1.948 27.094 5.845 8.175 3.896 15.102 9.638 20.781 17.226 5.782 7.588 10.01 16.782 12.608 27.583zm-72.29.274c.782 6.334 2.805 11.849 6.098 16.543 3.332 4.694 9.037 7.04 17.085 7.04 6.21 0 10.646-1.23 13.288-3.69 2.619-2.462 4.006-5.276 4.172-8.443.159-3.167-.056-6.984-.642-11.45-1.442-6.335-3.863-11.86-7.239-16.577-3.336-4.717-8.96-7.076-16.901-7.076-12.52 0-17.806 7.884-15.86 23.653zm89.728 48.535L490.268.752h27.29l37.556 36.914L542.524.752h27.289l38.41 98.71h-32.032L535.917 62.55l10.967 36.914h-32.032zm98.458 0L574.146.752h71.88l15.384 29.394h-46.9l5.048 11.348h30.864l8.537 17.227H627.22l18.123 40.742H613.31z" fill="#FFD401" fill-rule="evenodd"/></svg>