<svg xmlns="http://www.w3.org/2000/svg" viewBox="0 0 227 24"><path fill="#9B9B9B" fill-rule="evenodd" d="M208.94 0a625.43 625.43 0 0 1-17.22 2.42 639.88 639.88 0 0 1-3.243 4.124 628.661 628.661 0 0 1-65.554 4.434 594.611 594.611 0 0 1-9.423 6.336 587.824 587.824 0 0 1-9.425-6.332A628.671 628.671 0 0 1 38.52 6.58a604.243 604.243 0 0 1-3.245-4.122A625.743 625.743 0 0 1 18.054.046 593.055 593.055 0 0 1 0 12.797c3.97.714 7.944 1.39 11.922 2.03a595.055 595.055 0 0 0 6.988-5.018 638.315 638.315 0 0 0 15.212 2.103 634.021 634.021 0 0 0 68.164 4.626A594.765 594.765 0 0 0 113.502 24a596.675 596.675 0 0 0 11.213-7.467 634.057 634.057 0 0 0 68.163-4.66 632.11 632.11 0 0 0 15.21-2.11 588.14 588.14 0 0 0 6.99 5.014c3.979-.64 7.953-1.318 11.922-2.034A595.002 595.002 0 0 1 208.94 0"/></svg>